<svg xmlns="http://www.w3.org/2000/svg" xmlns:xlink="http://www.w3.org/1999/xlink" width="251" height="120" viewBox="0 0 251 120"><defs><style>.a{fill:#9d9d9d;}.b{clip-path:url(#a);}.c{fill:#e91a47;}.d{fill:#fff;}.e{fill:#510c76;}</style><clipPath id="a"><rect class="a" width="251" height="120" transform="translate(544 177)"/></clipPath></defs><g class="b" transform="translate(-544 -177)"><g transform="translate(544 200.801)"><rect class="c" width="72.393" height="72.398" rx="11.049"/><path class="d" d="M42.182,33.167,35.21,26.184a.4.4,0,0,0-.645.293v9.546a.387.387,0,0,0,.387.387.367.367,0,0,0,.253-.094l1.934-1.686,1.582,3.685a.195.195,0,0,0,.238.139.322.322,0,0,0,.1,0l1.661-.714a.253.253,0,0,0,.134-.337l-1.527-3.576h2.594a.382.382,0,0,0,.387-.387.417.417,0,0,0-.114-.273"/><path class="d" d="M34.813,56.569A2.618,2.618,0,1,0,32.2,59.182a2.618,2.618,0,0,0,2.613-2.613"/><path class="d" d="M47.568,56.569a2.608,2.608,0,1,0-.764,1.849,2.613,2.613,0,0,0,.764-1.849"/><path class="d" d="M55.542,26.531a1.965,1.965,0,0,0-1.984,1.751v4.329c0,8.49-6.4,15.4-14.877,15.4S23.8,41.121,23.8,32.636V20.918c0-.992-1.265-1.751-2.227-1.751h-.169a2.227,2.227,0,0,0-1.274.471l-.035.03-.169.134-5.678,4.5a2.232,2.232,0,0,0,1.488,3.967,2.261,2.261,0,0,0,1.265-.5l2.336-1.8v6.685a19.094,19.094,0,0,0,38.185-.045V28.267A1.971,1.971,0,0,0,55.542,26.531Z"/><path class="c" d="M100.4,32.309A2.767,2.767,0,0,0,99.787,30a2.594,2.594,0,0,0-2.043-.937A3.471,3.471,0,0,0,95.433,30a3.645,3.645,0,0,0-1.279,2.311L92.284,45.7a3.253,3.253,0,0,1-.992,1.984,2.9,2.9,0,0,1-2.088.838,2.574,2.574,0,0,1-1.984-.838,2.326,2.326,0,0,1-.615-1.984l2.752-19.574a2.539,2.539,0,0,1,.838-1.547,2.281,2.281,0,0,1,1.547-.63,2.4,2.4,0,0,1,1.82.957c.555.64.992.957,1.23.957a7.525,7.525,0,0,0,2.043-1.1,6.447,6.447,0,0,1,3.471-1.111,4.786,4.786,0,0,1,2.435.615,9.08,9.08,0,0,1,1.671,1.205,1.706,1.706,0,0,0,.992.59,10.045,10.045,0,0,0,2.41-1.205A7.776,7.776,0,0,1,111.7,23.65a6.139,6.139,0,0,1,4.989,2.311,7.624,7.624,0,0,1,1.354,6.149l-1.9,13.623a3.159,3.159,0,0,1-.992,1.944,2.936,2.936,0,0,1-2.083.813,2.574,2.574,0,0,1-1.984-.838,2.326,2.326,0,0,1-.615-1.984l1.87-13.39a2.926,2.926,0,0,0-.541-2.336,2.48,2.48,0,0,0-2.068-.912,3.442,3.442,0,0,0-2.336.937,3.7,3.7,0,0,0-1.27,2.341l-1.87,13.424a3.129,3.129,0,0,1-.992,1.944,2.936,2.936,0,0,1-2.1.813,2.574,2.574,0,0,1-1.984-.838,2.341,2.341,0,0,1-.615-1.984Z"/><path class="c" d="M137.521,39.732a10.245,10.245,0,0,1-3.566,6.521,9.918,9.918,0,0,1-6.566,2.529,8.43,8.43,0,0,1-6.2-2.554,7.273,7.273,0,0,1-2.013-6.5l.992-7.032A10.558,10.558,0,0,1,130.4,23.65a8.282,8.282,0,0,1,6.149,2.559,7.38,7.38,0,0,1,1.984,6.491Zm-12.591,0a3.263,3.263,0,0,0,.665,2.584,2.812,2.812,0,0,0,2.286,1.061,3.749,3.749,0,0,0,2.584-1.061,4.111,4.111,0,0,0,1.349-2.584l.992-7.032a3.328,3.328,0,0,0-.64-2.584A2.728,2.728,0,0,0,129.9,29.06a3.828,3.828,0,0,0-2.609,1.056,4.106,4.106,0,0,0-1.379,2.584Z"/><path class="c" d="M157.03,46.373a2.37,2.37,0,0,1-.788,1.6,2.44,2.44,0,0,1-1.671.625,2.41,2.41,0,0,1-1.6-.863c-.57-.575-1.022-.858-1.349-.858a4.106,4.106,0,0,0-1.671.689,7.483,7.483,0,0,1-3.739,1.225,6.09,6.09,0,0,1-5.113-2.628,8.312,8.312,0,0,1-1.488-6.323l1.032-7.23a10.91,10.91,0,0,1,3.209-6.328,8.206,8.206,0,0,1,5.9-2.633,6.65,6.65,0,0,1,3.784,1.379.545.545,0,0,0,.5.119.407.407,0,0,0,.317-.367l1.23-8.753a3.055,3.055,0,0,1,1.131-1.944,3.214,3.214,0,0,1,2.167-.808,2.356,2.356,0,0,1,2.455,2.752Zm-11.659-6.541a3.119,3.119,0,0,0,.665,2.48,2.812,2.812,0,0,0,2.286,1.061,3.779,3.779,0,0,0,2.584-1.036,4,4,0,0,0,1.339-2.5l1.031-7.23a3.1,3.1,0,0,0-.665-2.529,2.852,2.852,0,0,0-2.286-.992,3.744,3.744,0,0,0-2.544,1.036,4.051,4.051,0,0,0-1.349,2.48Z"/><path class="c" d="M161.945,46.155a8.257,8.257,0,0,1-1.488-6.323l1.031-7.23a10.484,10.484,0,0,1,3.154-6.368,8.412,8.412,0,0,1,5.926-2.584,5.529,5.529,0,0,1,2.9.863,6.263,6.263,0,0,0,1.721.858,2.861,2.861,0,0,0,1.726-.833,2.782,2.782,0,0,1,1.82-.689,2.008,2.008,0,0,1,1.522.615,1.8,1.8,0,0,1,.446,1.6l-2.856,20.332a2.351,2.351,0,0,1-.808,1.582,2.48,2.48,0,0,1-1.646.625,2.4,2.4,0,0,1-1.6-.863c-.575-.57-1.027-.858-1.354-.858a4.572,4.572,0,0,0-1.77.729,6.665,6.665,0,0,1-3.551,1.175,6.2,6.2,0,0,1-5.187-2.628M174.115,32.6a3.124,3.124,0,0,0-.64-2.48,2.8,2.8,0,0,0-2.306-1.036,4.255,4.255,0,0,0-3.938,3.541l-1.036,7.23a2.975,2.975,0,0,0,.64,2.48,2.827,2.827,0,0,0,2.271,1.041,3.893,3.893,0,0,0,2.608-1.036,3.938,3.938,0,0,0,1.359-2.509Z"/><path class="e" d="M203.77,7.181a3.076,3.076,0,0,1,4.895-1.4,2.4,2.4,0,0,1,.813,1.894A2.479,2.479,0,0,1,209.23,8.8L192.121,46.031a4.107,4.107,0,0,1-3.838,2.608,3.263,3.263,0,0,1-2.237-.764,3.422,3.422,0,0,1-1.106-1.845L181.4,27.538a5.99,5.99,0,0,1-.05-.992,2.663,2.663,0,0,1,.992-1.919,3.442,3.442,0,0,1,2.237-.734,2.3,2.3,0,0,1,2.509,2.162l1.721,11.951.3,2.975h.1l1.031-2.975Z"/><path class="e" d="M201.98,46.229A7.116,7.116,0,0,1,200,39.881l1.031-7.325A10.369,10.369,0,0,1,211.06,23.63a7.751,7.751,0,0,1,6.025,2.658,7.439,7.439,0,0,1,1.894,6.248l-.342,2.48a3.67,3.67,0,0,1-1.136,2.177,3.02,3.02,0,0,1-2.167.992h-9.343l-.248,1.671a3.02,3.02,0,0,0,3,3.546,7.508,7.508,0,0,0,3.541-.937,3.967,3.967,0,0,1,1.919-.541,2.172,2.172,0,0,1,1.746.789,2.445,2.445,0,0,1,.565,1.865,3.633,3.633,0,0,1-2.113,2.708,12.309,12.309,0,0,1-6.149,1.522,8.475,8.475,0,0,1-6.273-2.554m4.6-12.4h6.685l.2-1.274a3.01,3.01,0,0,0-.665-2.48,2.723,2.723,0,0,0-2.187-1.036,3.68,3.68,0,0,0-2.509.992,3.9,3.9,0,0,0-1.324,2.48Z"/><path class="e" d="M220.254,47.553c-1.488-.754-2.147-1.765-2.018-3.045a2.608,2.608,0,0,1,.863-1.8,2.643,2.643,0,0,1,1.8-.66,3.729,3.729,0,0,1,1.721.5,7.439,7.439,0,0,0,3.149.937,3.561,3.561,0,0,0,2.142-.669,2.693,2.693,0,0,0,1.106-1.746,1.637,1.637,0,0,0-.689-1.622,10.042,10.042,0,0,0-2.658-1.26,12.3,12.3,0,0,1-4.577-2.609,4.847,4.847,0,0,1-1.275-4.324,8.138,8.138,0,0,1,3.1-5.455,9.368,9.368,0,0,1,6.05-2.142,9.789,9.789,0,0,1,5.014,1.379,3.02,3.02,0,0,1,1.627,2.737,2.554,2.554,0,0,1-.789,1.721,2.48,2.48,0,0,1-1.82.759,4.875,4.875,0,0,1-2.167-.59,5.8,5.8,0,0,0-2.41-.59,3.576,3.576,0,0,0-2.063.64,2.246,2.246,0,0,0-1.031,1.721,1.359,1.359,0,0,0,.193.888,2.345,2.345,0,0,0,.863.739,6.446,6.446,0,0,0,.992.466q.372.119,1.205.417a11.942,11.942,0,0,1,4.746,2.633,5.239,5.239,0,0,1,1.3,4.7,8.2,8.2,0,0,1-3.035,5.5,9.745,9.745,0,0,1-6.268,2.013,10.583,10.583,0,0,1-5.068-1.23"/><path class="e" d="M235.528,28.619A2.281,2.281,0,0,1,235.062,27a2.519,2.519,0,0,1,.689-1.671,2.316,2.316,0,0,1,1.488-.789l2.509-.347,1.428-4.463a2.8,2.8,0,0,1,2.9-2.167,2.018,2.018,0,0,1,1.488.64,1.84,1.84,0,0,1,.471,1.627l-.6,4.23h3.347a2.113,2.113,0,0,1,1.646.739,2.48,2.48,0,0,1,.541,1.919,2.737,2.737,0,0,1-.883,1.82,2.534,2.534,0,0,1-1.756.724H244.7l-1.522,11.118q-.4,2.975,1.919,2.975a5.063,5.063,0,0,0,.858-.129,5.355,5.355,0,0,1,.912-.079,1.676,1.676,0,0,1,1.453.739,2.48,2.48,0,0,1,.417,1.721,2.926,2.926,0,0,1-1.6,2.385,6.506,6.506,0,0,1-3.223.808,6.23,6.23,0,0,1-5.286-2.286,7.744,7.744,0,0,1-1.205-6.025l1.572-11.227h-2.118a1.646,1.646,0,0,1-1.349-.64"/></g></g></svg>